<?xml version="1.0" encoding="UTF-8"?>
<svg xmlns="http://www.w3.org/2000/svg" xmlns:xlink="http://www.w3.org/1999/xlink" width="250px" height="250px" viewBox="0 0 250 250" version="1.1">
<defs>
<clipPath id="clip1">
  <path d="M 114.105469 93.371094 L 195.710938 93.371094 L 195.710938 156.628906 L 114.105469 156.628906 Z M 114.105469 93.371094 "/>
</clipPath>
<clipPath id="clip2">
  <path d="M 54.289062 95.996094 L 99.171875 95.996094 L 99.171875 154.003906 L 54.289062 154.003906 Z M 54.289062 95.996094 "/>
</clipPath>
</defs>
<g id="surface1">
<g clip-path="url(#clip1)" clip-rule="nonzero">
<path style=" stroke:none;fill-rule:nonzero;fill:rgb(23.529412%,21.176471%,92.156863%);fill-opacity:1;" d="M 114.105469 127.535156 L 114.105469 94.421875 L 126.164062 94.421875 L 126.164062 128.40625 C 126.164062 131.667969 126.351562 134.128906 126.722656 135.78125 C 127.105469 137.449219 127.96875 139.257812 129.308594 141.214844 C 130.648438 143.160156 131.609375 144.132812 132.191406 144.132812 C 132.773438 144.132812 133.734375 143.160156 135.074219 141.214844 C 136.414062 139.257812 137.277344 137.449219 137.660156 135.78125 C 138.035156 134.128906 138.222656 131.667969 138.222656 128.40625 L 138.222656 118.183594 C 138.222656 113.292969 137.890625 109.886719 137.226562 107.960938 C 136.550781 106.039062 135.132812 103.679688 132.980469 100.886719 L 143.464844 93.371094 C 145.328125 94.59375 146.929688 96.964844 148.269531 100.484375 C 149.609375 104.011719 150.277344 108.226562 150.277344 113.117188 L 150.277344 127.535156 C 150.277344 132.078125 149.839844 135.804688 148.96875 138.71875 C 148.09375 141.628906 145.605469 145.339844 141.507812 149.847656 C 137.394531 154.367188 134.289062 156.628906 132.191406 156.628906 C 130.09375 156.628906 126.996094 154.367188 122.894531 149.847656 C 118.785156 145.339844 116.289062 141.628906 115.417969 138.71875 C 114.542969 135.804688 114.105469 132.078125 114.105469 127.535156 Z M 175.441406 137.230469 L 175.441406 125.960938 L 177.1875 125.960938 C 178.292969 125.960938 179.585938 125.417969 181.066406 124.335938 C 182.558594 123.265625 183.507812 122.085938 183.914062 120.804688 C 184.324219 119.523438 184.527344 117.804688 184.527344 115.652344 C 184.527344 113.496094 184.324219 111.703125 183.914062 110.269531 C 183.507812 108.847656 182.558594 107.613281 181.066406 106.566406 C 179.585938 105.515625 178.160156 104.992188 176.785156 104.992188 C 175.421875 104.992188 173.578125 105.75 171.246094 107.265625 C 171.421875 109.1875 171.507812 111.136719 171.507812 113.117188 L 171.507812 155.578125 L 159.453125 155.578125 L 159.453125 118.183594 C 159.453125 113.292969 159.113281 109.839844 158.4375 107.824219 C 157.773438 105.820312 156.363281 103.476562 154.210938 100.796875 L 164.695312 93.371094 C 166.207031 94.421875 167.546875 96.136719 168.714844 98.527344 C 173.488281 95.089844 176.898438 93.371094 178.933594 93.371094 C 180.972656 93.371094 183.800781 95.003906 187.410156 98.265625 C 191.023438 101.527344 193.46875 104.265625 194.75 106.476562 C 195.390625 107.292969 195.710938 110.117188 195.710938 114.953125 C 195.710938 119.785156 195.390625 122.84375 194.75 124.125 C 193.46875 126.339844 191.023438 129.078125 187.410156 132.339844 C 183.800781 135.601562 180.972656 137.230469 178.933594 137.230469 Z M 175.441406 137.230469 "/>
</g>
<g clip-path="url(#clip2)" clip-rule="nonzero">
<path style=" stroke:none;fill-rule:nonzero;fill:rgb(17.254902%,54.509804%,94.901961%);fill-opacity:1;" d="M 95.660156 111.847656 C 95.566406 111.574219 95.460938 111.300781 95.34375 111.035156 C 95.164062 109.96875 94.328125 107.964844 94.316406 107.941406 L 94.140625 107.558594 C 93.761719 106.726562 93.332031 105.785156 93.253906 104.976562 C 93.195312 104.351562 94.003906 101.117188 94.390625 99.5625 C 95.109375 96.695312 95.183594 96.394531 94.308594 96.078125 C 94.179688 96.035156 94.042969 96.015625 93.902344 96.027344 L 93.898438 96.027344 C 93.066406 95.847656 92.175781 96.425781 90.675781 97.464844 C 90.414062 97.648438 90.070312 97.886719 89.746094 98.097656 C 89.855469 97.566406 89.839844 96.878906 89.164062 96.335938 C 88.308594 95.652344 87.09375 96.351562 85.253906 97.414062 C 84.738281 97.710938 83.96875 98.15625 83.453125 98.386719 C 83.046875 97.71875 82.300781 96.996094 80.886719 97.28125 C 80.085938 97.441406 79.160156 98.144531 77.835938 99.195312 C 77.453125 99.503906 77.0625 99.804688 76.667969 100.09375 C 76.664062 99.851562 76.632812 99.589844 76.535156 99.332031 C 76.070312 98.105469 75.3125 97.714844 74.757812 97.605469 C 72.957031 97.246094 71.023438 99.292969 69.472656 100.9375 C 69.375 101.039062 69.273438 101.144531 69.175781 101.25 C 68.726562 100.507812 68.164062 99.742188 67.335938 99.597656 C 66.539062 99.453125 63.25 100.242188 60.203125 102.917969 C 57.300781 105.46875 53.921875 110.390625 54.320312 119.367188 C 54.429688 121.839844 55.765625 143.738281 68.730469 151.449219 C 71.59375 153.152344 74.78125 154.003906 78.273438 154.003906 C 82.449219 154.003906 87.058594 152.785156 92.066406 150.34375 C 105.515625 143.792969 95.765625 112.164062 95.660156 111.847656 M 91.230469 148.625 C 82.65625 152.800781 75.414062 153.199219 69.707031 149.804688 C 57.605469 142.609375 56.335938 121.644531 56.230469 119.28125 C 55.964844 113.265625 57.421875 108.535156 60.5625 105.222656 C 63.257812 102.378906 66.316406 101.582031 66.992188 101.496094 C 67.222656 101.683594 67.585938 102.3125 67.769531 102.625 C 67.925781 102.902344 68.066406 103.140625 68.207031 103.332031 C 68.515625 103.742188 69.089844 103.835938 69.511719 103.546875 C 69.863281 103.304688 70.285156 102.863281 70.863281 102.246094 C 71.617188 101.449219 73.613281 99.324219 74.382812 99.476562 C 74.492188 99.5 74.632812 99.703125 74.746094 99.996094 C 74.761719 100.0625 74.757812 100.253906 74.753906 100.378906 C 74.746094 100.855469 74.726562 101.742188 75.515625 102.207031 C 76.4375 102.75 77.464844 101.929688 79.023438 100.691406 C 79.710938 100.148438 80.855469 99.234375 81.265625 99.152344 C 81.617188 99.082031 81.71875 99.058594 82.039062 99.839844 C 82.15625 100.128906 82.40625 100.339844 82.710938 100.410156 C 83.511719 100.59375 84.515625 100.046875 86.210938 99.070312 C 86.625 98.828125 87.214844 98.488281 87.683594 98.25 C 87.53125 98.695312 87.394531 99.3125 87.769531 99.90625 C 87.957031 100.199219 88.242188 100.398438 88.585938 100.464844 C 89.40625 100.632812 90.28125 100.0625 91.761719 99.039062 C 92.074219 98.820312 92.390625 98.605469 92.710938 98.398438 C 92.652344 98.628906 92.59375 98.867188 92.535156 99.097656 C 91.789062 102.089844 91.265625 104.277344 91.351562 105.160156 C 91.394531 105.621094 91.507812 106.078125 91.652344 106.523438 C 90.675781 105.941406 89.566406 105.636719 88.347656 105.8125 C 87.660156 105.910156 86.992188 106.203125 86.378906 106.65625 C 85.484375 105.863281 84.46875 105.308594 83.375 105.214844 C 80.703125 104.972656 77.226562 104.972656 74.671875 106.078125 C 73.515625 105.160156 71.796875 105.03125 69.894531 105.742188 C 66.484375 107.015625 64.210938 109.210938 63.128906 112.273438 C 60.402344 120 66.167969 131.109375 68.804688 135.574219 C 68.710938 136.410156 68.734375 137.25 68.902344 138.058594 C 69.363281 140.261719 71.3125 143.992188 79.214844 144.25 C 88.949219 144.566406 92.15625 140.355469 92.523438 137.820312 C 92.71875 136.449219 92.078125 135.644531 91.351562 135.457031 C 90.71875 135.292969 88.742188 135.265625 84.046875 135.242188 C 79.792969 135.214844 72.949219 135.179688 70.878906 134.789062 C 71.460938 132.488281 73.074219 130.425781 74.460938 129.765625 C 75.484375 129.273438 75.988281 129.6875 76.273438 130.039062 C 76.652344 130.5 77.074219 130.585938 77.359375 130.585938 C 77.984375 130.574219 78.367188 130.121094 78.609375 129.804688 C 78.84375 129.90625 79.140625 130.132812 79.449219 130.367188 C 80.203125 130.941406 81.234375 131.726562 82.738281 131.746094 C 83.550781 131.738281 84.222656 131.523438 84.695312 131.054688 C 85.472656 130.289062 85.535156 129.136719 85.535156 127.921875 C 85.535156 126.652344 85.3125 125.484375 85.09375 124.355469 L 84.980469 123.75 C 84.535156 121.347656 83.90625 118.773438 83.109375 116.101562 C 82.9375 115.542969 82.765625 114.988281 82.582031 114.4375 C 82.328125 113.644531 82.066406 112.832031 81.855469 112.0625 C 81.722656 111.570312 81.425781 110.285156 81.207031 109.351562 C 81.09375 108.871094 81.003906 108.484375 80.96875 108.339844 C 80.839844 107.828125 80.320312 107.515625 79.808594 107.644531 C 79.296875 107.773438 78.988281 108.292969 79.113281 108.804688 C 79.148438 108.945312 79.238281 109.320312 79.34375 109.785156 C 79.566406 110.734375 79.871094 112.035156 80.011719 112.566406 C 80.234375 113.375 80.503906 114.210938 80.765625 115.023438 C 80.941406 115.570312 81.117188 116.117188 81.277344 116.648438 C 82.054688 119.257812 82.671875 121.761719 83.101562 124.097656 L 83.21875 124.714844 C 83.425781 125.804688 83.625 126.835938 83.625 127.921875 C 83.625 128.445312 83.625 129.425781 83.355469 129.695312 C 83.230469 129.8125 82.957031 129.832031 82.761719 129.832031 C 81.890625 129.824219 81.265625 129.347656 80.605469 128.847656 C 79.945312 128.339844 79.195312 127.761719 78.214844 127.847656 C 77.796875 127.878906 77.511719 128.125 77.308594 128.367188 C 76.316406 127.511719 75.011719 127.382812 73.636719 128.039062 C 71.984375 128.828125 70.390625 130.710938 69.492188 132.921875 C 66.800781 128.019531 62.75 119.082031 64.933594 112.910156 C 65.828125 110.371094 67.667969 108.613281 70.5625 107.535156 C 70.929688 107.394531 71.964844 107.058594 72.828125 107.269531 C 71.417969 108.695312 69.398438 112.179688 69.664062 114.515625 C 69.78125 115.546875 70.332031 116.328125 71.214844 116.710938 C 72.804688 117.40625 75.210938 117.003906 76.128906 115.320312 C 76.648438 114.363281 76.8125 112.839844 76.617188 110.789062 C 76.582031 110.417969 76.410156 108.949219 75.835938 107.671875 C 77.582031 107.039062 80.121094 106.84375 83.207031 107.117188 C 83.78125 107.167969 84.414062 107.488281 85.046875 108.035156 C 84.988281 108.117188 84.929688 108.199219 84.875 108.285156 C 83.695312 110.066406 83.199219 112.390625 83.640625 114.070312 C 83.824219 114.769531 84.3125 115.316406 85.050781 115.65625 C 86.375 116.261719 88.292969 116.070312 89.382812 115.535156 C 89.871094 115.296875 90.394531 114.691406 90.109375 113.167969 C 89.855469 111.792969 88.972656 109.746094 87.683594 108.074219 C 87.988281 107.875 88.304688 107.75 88.621094 107.703125 C 90.730469 107.394531 92.628906 109.664062 93.546875 111.703125 C 93.550781 111.714844 93.554688 111.722656 93.558594 111.734375 C 93.671875 111.980469 93.765625 112.226562 93.847656 112.460938 C 95.519531 117.386719 101.78125 143.484375 91.230469 148.625 M 86.425781 109.585938 C 87.730469 111.4375 88.265625 113.265625 88.285156 113.921875 C 87.589844 114.15625 86.488281 114.210938 85.847656 113.914062 C 85.542969 113.777344 85.5 113.628906 85.488281 113.582031 C 85.199219 112.484375 85.566406 110.796875 86.363281 109.503906 Z M 74.449219 114.40625 C 74.070312 115.105469 72.753906 115.296875 71.984375 114.960938 C 71.796875 114.878906 71.617188 114.742188 71.566406 114.300781 C 71.382812 112.699219 73.097656 109.679688 74.167969 108.625 C 74.449219 109.320312 74.644531 110.207031 74.714844 110.972656 C 74.867188 112.539062 74.765625 113.824219 74.449219 114.40625 M 70.660156 136.671875 C 72.464844 136.988281 76.167969 137.105469 84.039062 137.152344 C 86.714844 137.164062 89.714844 137.183594 90.648438 137.273438 C 90.664062 137.546875 90.566406 138.117188 90.09375 138.820312 C 89.328125 139.957031 86.742188 142.574219 79.277344 142.335938 C 74.320312 142.175781 71.378906 140.5625 70.773438 137.667969 C 70.707031 137.339844 70.667969 137.007812 70.660156 136.671875 "/>
</g>
<path style=" stroke:none;fill-rule:nonzero;fill:rgb(17.254902%,54.509804%,94.901961%);fill-opacity:1;" d="M 68.980469 24.085938 L 63.050781 11.808594 L 67.523438 9.648438 L 73.605469 22.25 C 74.191406 23.457031 74.699219 24.335938 75.132812 24.882812 C 75.574219 25.429688 76.214844 25.945312 77.058594 26.433594 C 77.90625 26.914062 78.4375 27.105469 78.652344 27 C 78.867188 26.898438 79.050781 26.363281 79.199219 25.398438 C 79.34375 24.433594 79.339844 23.613281 79.183594 22.925781 C 79.023438 22.246094 78.652344 21.300781 78.070312 20.09375 L 76.242188 16.304688 C 75.367188 14.496094 74.632812 13.292969 74.042969 12.699219 C 73.449219 12.101562 72.503906 11.480469 71.199219 10.828125 L 73.742188 6.167969 C 74.65625 6.292969 75.675781 6.886719 76.808594 7.949219 C 77.929688 9.011719 78.929688 10.453125 79.804688 12.269531 L 82.386719 17.613281 C 83.199219 19.292969 83.703125 20.753906 83.902344 21.992188 C 84.097656 23.230469 83.839844 25.050781 83.125 27.453125 C 82.414062 29.863281 81.667969 31.253906 80.886719 31.628906 C 80.109375 32.007812 78.554688 31.722656 76.226562 30.785156 C 73.898438 29.847656 72.3125 28.917969 71.464844 27.996094 C 70.621094 27.070312 69.792969 25.765625 68.980469 24.085938 Z M 68.980469 24.085938 "/>
<path style=" stroke:none;fill-rule:nonzero;fill:rgb(17.254902%,54.509804%,94.901961%);fill-opacity:1;" d="M 167.484375 22.316406 L 169.210938 18.011719 L 169.878906 18.28125 C 170.300781 18.449219 170.875 18.441406 171.613281 18.257812 C 172.34375 18.074219 172.886719 17.765625 173.234375 17.339844 C 173.589844 16.914062 173.929688 16.289062 174.261719 15.46875 C 174.589844 14.640625 174.785156 13.925781 174.847656 13.316406 C 174.910156 12.714844 174.742188 12.097656 174.335938 11.46875 C 173.925781 10.835938 173.460938 10.417969 172.941406 10.207031 C 172.414062 10 171.589844 10.003906 170.472656 10.222656 C 170.246094 10.984375 169.980469 11.746094 169.675781 12.503906 L 163.171875 28.722656 L 158.5625 26.875 L 164.289062 12.59375 C 165.039062 10.726562 165.441406 9.355469 165.496094 8.484375 C 165.546875 7.613281 165.367188 6.5 164.953125 5.144531 L 170.09375 3.914062 C 170.511719 4.546875 170.761719 5.410156 170.839844 6.5 C 173.195312 5.921875 174.761719 5.785156 175.535156 6.097656 C 176.316406 6.410156 177.144531 7.464844 178.027344 9.265625 C 178.910156 11.0625 179.425781 12.484375 179.570312 13.527344 C 179.6875 13.9375 179.378906 15.0625 178.636719 16.90625 C 177.894531 18.757812 177.304688 19.875 176.867188 20.265625 C 176.039062 20.917969 174.6875 21.59375 172.808594 22.28125 C 170.925781 22.972656 169.597656 23.164062 168.816406 22.851562 Z M 167.484375 22.316406 "/>
<path style=" stroke:none;fill-rule:nonzero;fill:rgb(17.254902%,54.509804%,94.901961%);fill-opacity:1;" d="M 70.589844 227.554688 L 76.515625 215.277344 L 80.988281 217.4375 L 74.90625 230.035156 C 74.320312 231.242188 73.949219 232.1875 73.789062 232.867188 C 73.636719 233.550781 73.632812 234.375 73.777344 235.339844 C 73.925781 236.304688 74.105469 236.839844 74.320312 236.941406 C 74.535156 237.046875 75.066406 236.855469 75.917969 236.371094 C 76.761719 235.886719 77.402344 235.371094 77.84375 234.824219 C 78.277344 234.277344 78.785156 233.398438 79.367188 232.1875 L 81.195312 228.402344 C 82.070312 226.589844 82.558594 225.265625 82.65625 224.433594 C 82.75 223.601562 82.648438 222.472656 82.351562 221.046875 L 87.582031 220.140625 C 88.050781 220.929688 88.222656 222.097656 88.089844 223.648438 C 87.957031 225.1875 87.449219 226.863281 86.574219 228.683594 L 83.996094 234.027344 C 83.183594 235.707031 82.355469 237.007812 81.507812 237.933594 C 80.664062 238.859375 79.078125 239.789062 76.75 240.722656 C 74.421875 241.664062 72.867188 241.945312 72.085938 241.570312 C 71.308594 241.191406 70.5625 239.800781 69.847656 237.394531 C 69.132812 234.988281 68.875 233.167969 69.074219 231.929688 C 69.273438 230.695312 69.777344 229.234375 70.589844 227.554688 Z M 70.589844 227.554688 "/>
<path style=" stroke:none;fill-rule:nonzero;fill:rgb(17.254902%,54.509804%,94.901961%);fill-opacity:1;" d="M 169.074219 236.625 L 167.351562 232.320312 L 168.019531 232.050781 C 168.4375 231.882812 168.851562 231.480469 169.257812 230.835938 C 169.65625 230.195312 169.835938 229.601562 169.792969 229.054688 C 169.753906 228.5 169.570312 227.8125 169.242188 226.992188 C 168.910156 226.164062 168.558594 225.511719 168.179688 225.03125 C 167.808594 224.550781 167.261719 224.222656 166.535156 224.046875 C 165.800781 223.875 165.175781 223.894531 164.65625 224.101562 C 164.128906 224.3125 163.535156 224.886719 162.878906 225.816406 C 163.242188 226.527344 163.578125 227.261719 163.878906 228.019531 L 170.386719 244.238281 L 165.777344 246.085938 L 160.046875 231.800781 C 159.300781 229.933594 158.644531 228.667969 158.078125 228 C 157.515625 227.332031 156.617188 226.652344 155.378906 225.957031 L 158.25 221.519531 C 158.988281 221.6875 159.761719 222.140625 160.574219 222.871094 C 161.875 220.824219 162.914062 219.644531 163.6875 219.335938 C 164.46875 219.023438 165.800781 219.210938 167.679688 219.902344 C 169.558594 220.59375 170.914062 221.265625 171.738281 221.917969 C 172.109375 222.132812 172.664062 223.164062 173.402344 225.007812 C 174.144531 226.855469 174.492188 228.074219 174.441406 228.660156 C 174.296875 229.703125 173.78125 231.125 172.902344 232.921875 C 172.019531 234.71875 171.1875 235.777344 170.40625 236.089844 Z M 169.074219 236.625 "/>
<path style=" stroke:none;fill-rule:nonzero;fill:rgb(17.254902%,54.509804%,94.901961%);fill-opacity:1;" d="M 0 127.484375 C 0 122.082031 4.378906 117.707031 9.78125 117.703125 C 15.183594 117.703125 19.5625 122.082031 19.5625 127.484375 C 19.5625 132.886719 15.183594 137.265625 9.78125 137.265625 C 4.378906 137.265625 0 132.886719 0 127.484375 Z M 0 127.484375 "/>
<path style=" stroke:none;fill-rule:nonzero;fill:rgb(17.254902%,54.509804%,94.901961%);fill-opacity:1;" d="M 230.4375 127.484375 C 230.4375 122.082031 234.816406 117.707031 240.21875 117.703125 C 245.621094 117.703125 250 122.082031 250 127.484375 C 250 132.886719 245.621094 137.265625 240.21875 137.265625 C 234.816406 137.265625 230.4375 132.886719 230.4375 127.484375 Z M 230.4375 127.484375 "/>
</g>
</svg>
