<?xml version="1.0" encoding="UTF-8"?>
<svg xmlns="http://www.w3.org/2000/svg" xmlns:xlink="http://www.w3.org/1999/xlink" width="250px" height="281px" viewBox="0 0 250 281" version="1.1">
<defs>
<clipPath id="clip1">
  <path d="M 0.0390625 16 L 249.964844 16 L 249.964844 265 L 0.0390625 265 Z M 0.0390625 16 "/>
</clipPath>
<clipPath id="clip2">
  <path d="M 71.125 131.621094 L 199.980469 131.621094 L 199.980469 149.375 L 71.125 149.375 Z M 71.125 131.621094 "/>
</clipPath>
<clipPath id="clip3">
  <path d="M 50.023438 129.582031 L 66.929688 129.582031 L 66.929688 151.421875 L 50.023438 151.421875 Z M 50.023438 129.582031 "/>
</clipPath>
</defs>
<g id="surface1">
<g clip-path="url(#clip1)" clip-rule="nonzero">
<path style=" stroke:none;fill-rule:nonzero;fill:rgb(69.803922%,73.333333%,85.490196%);fill-opacity:1;" d="M 66.820312 25.667969 C 66.820312 24.796875 67.257812 23.925781 68.128906 23.925781 C 69 23.925781 69.871094 24.359375 69.871094 25.667969 C 70.308594 25.667969 71.179688 25.667969 71.617188 25.230469 C 73.363281 25.230469 75.105469 24.796875 76.414062 25.230469 C 77.722656 25.667969 78.59375 25.667969 79.902344 26.105469 C 81.210938 26.539062 82.082031 26.105469 82.953125 25.667969 C 84.699219 25.230469 86.007812 24.359375 87.75 23.925781 C 88.625 23.488281 89.058594 23.488281 89.929688 23.488281 C 90.804688 23.054688 91.675781 23.054688 92.984375 22.617188 C 95.164062 22.183594 97.34375 21.746094 99.089844 20.875 C 100.832031 20.003906 102.578125 20.003906 104.320312 19.566406 C 105.191406 19.566406 105.628906 19.132812 106.5 18.695312 C 106.9375 18.695312 106.9375 18.257812 107.375 17.824219 C 108.246094 17.386719 108.679688 16.953125 109.554688 17.386719 C 109.988281 17.824219 110.863281 17.824219 111.296875 17.386719 L 111.734375 17.386719 C 114.351562 17.386719 116.964844 16.953125 120.019531 17.386719 C 120.453125 17.386719 120.890625 17.386719 120.890625 17.386719 C 122.199219 16.515625 123.945312 16.515625 125.6875 16.515625 C 126.125 16.515625 126.996094 16.515625 127.433594 16.515625 L 127.867188 16.515625 C 129.613281 16.515625 131.355469 16.515625 132.664062 16.953125 C 133.972656 16.953125 134.84375 17.386719 136.152344 17.824219 C 137.460938 17.824219 138.332031 17.824219 139.640625 18.257812 C 140.511719 18.257812 141.386719 18.257812 142.257812 18.257812 C 142.695312 18.257812 143.128906 18.257812 143.128906 18.257812 C 144.875 18.695312 146.617188 18.695312 148.363281 18.695312 C 149.671875 19.132812 150.980469 19.566406 152.722656 19.566406 C 153.160156 19.566406 153.59375 19.566406 154.03125 19.566406 C 154.46875 19.566406 154.902344 20.003906 155.339844 20.003906 L 155.773438 20.4375 C 157.519531 20.4375 158.828125 21.308594 160.570312 21.308594 C 161.007812 21.308594 161.878906 21.308594 162.316406 21.746094 C 163.625 22.617188 165.367188 23.054688 167.113281 23.054688 C 167.984375 23.054688 168.421875 23.488281 168.855469 23.925781 C 170.164062 24.359375 171.039062 24.796875 172.34375 25.230469 C 173.21875 25.667969 174.089844 25.230469 174.960938 25.667969 C 176.269531 26.105469 178.015625 26.539062 179.320312 27.847656 C 180.195312 28.71875 181.066406 28.71875 182.375 29.589844 C 182.8125 29.589844 183.246094 30.027344 183.683594 30.460938 C 184.992188 31.332031 186.300781 32.203125 187.605469 32.640625 C 188.042969 32.640625 188.480469 33.078125 188.914062 33.078125 C 190.222656 33.949219 191.53125 35.253906 193.277344 36.128906 C 194.148438 36.5625 194.585938 37 195.457031 37.433594 L 195.890625 37.433594 C 197.199219 38.742188 198.945312 39.613281 200.253906 40.921875 C 201.5625 42.226562 202.433594 43.101562 204.175781 43.972656 C 204.175781 43.972656 204.175781 43.972656 204.175781 44.40625 C 204.613281 45.277344 205.050781 45.714844 205.921875 46.148438 C 206.792969 46.585938 207.230469 47.023438 207.664062 47.457031 C 208.972656 48.328125 210.28125 49.199219 211.152344 50.074219 C 211.589844 50.507812 212.027344 50.945312 212.898438 51.816406 C 213.335938 52.25 213.769531 52.6875 214.207031 52.6875 C 215.949219 53.125 216.824219 54.429688 218.132812 55.738281 C 219.003906 56.609375 220.3125 57.917969 221.183594 58.789062 C 221.621094 59.222656 222.054688 60.097656 222.492188 60.96875 C 223.363281 63.582031 224.671875 66.195312 225.980469 68.375 C 225.980469 68.375 225.980469 68.8125 226.414062 69.246094 L 226.414062 69.683594 C 227.289062 70.554688 227.722656 71.863281 228.597656 72.734375 C 229.03125 73.167969 229.03125 73.605469 229.46875 74.042969 C 230.339844 75.347656 230.777344 77.089844 231.648438 78.398438 C 232.957031 80.578125 233.828125 82.757812 234.699219 84.9375 L 234.699219 85.371094 C 235.136719 86.242188 235.574219 87.113281 236.007812 88.421875 C 236.007812 89.292969 236.882812 90.164062 237.316406 91.472656 C 237.753906 93.652344 239.0625 95.832031 239.496094 98.445312 C 239.496094 98.882812 239.933594 99.316406 239.933594 100.1875 C 240.371094 101.496094 240.804688 102.804688 241.242188 104.109375 C 241.242188 104.546875 241.679688 104.984375 242.113281 105.417969 C 242.984375 106.289062 242.984375 107.160156 242.984375 108.03125 C 242.550781 109.777344 242.984375 111.519531 243.421875 113.261719 C 243.421875 113.699219 243.421875 114.132812 243.421875 115.003906 C 243.859375 116.75 244.292969 118.929688 244.292969 120.671875 C 244.292969 121.105469 244.292969 121.980469 244.292969 122.414062 C 244.292969 123.722656 244.730469 125.027344 245.601562 126.335938 C 245.601562 126.773438 246.039062 126.773438 246.039062 126.773438 C 246.472656 127.207031 246.910156 128.078125 247.347656 128.515625 C 247.78125 128.953125 247.78125 128.953125 248.21875 129.386719 C 249.089844 130.257812 249.527344 131.128906 249.527344 132.4375 C 249.527344 132.875 249.089844 133.746094 249.089844 134.179688 C 249.089844 134.617188 249.089844 135.488281 249.527344 135.925781 C 249.960938 136.359375 249.960938 136.796875 249.960938 137.230469 C 249.960938 137.667969 249.527344 138.101562 249.089844 138.101562 C 248.65625 139.410156 246.910156 139.847656 246.472656 141.152344 C 246.039062 142.898438 245.601562 144.640625 245.167969 146.382812 C 244.730469 147.691406 244.730469 148.5625 244.730469 149.871094 C 244.730469 151.175781 244.292969 152.046875 244.292969 153.355469 C 243.859375 155.097656 243.421875 156.84375 242.984375 158.585938 C 242.984375 159.457031 242.550781 160.328125 242.550781 161.199219 C 242.984375 161.636719 243.421875 162.070312 243.859375 162.070312 C 244.730469 162.941406 245.601562 163.816406 246.472656 164.6875 C 246.910156 165.121094 246.910156 165.558594 246.472656 165.558594 C 246.039062 165.992188 245.601562 165.992188 245.167969 165.992188 C 244.730469 165.558594 243.859375 165.121094 243.421875 165.121094 C 242.984375 164.6875 242.113281 164.25 241.242188 164.6875 C 241.242188 165.558594 240.804688 166.429688 240.804688 166.867188 C 240.371094 167.738281 239.933594 169.042969 239.933594 169.914062 C 239.496094 171.660156 238.625 172.964844 238.1875 174.710938 C 237.316406 176.886719 236.445312 178.632812 235.574219 180.375 C 235.136719 181.246094 234.699219 182.117188 234.265625 182.988281 C 234.265625 184.296875 232.957031 185.605469 232.519531 186.910156 C 231.648438 188.65625 230.777344 190.398438 229.90625 192.578125 C 229.46875 193.449219 229.03125 194.320312 228.597656 194.757812 C 227.722656 196.933594 226.851562 198.679688 225.542969 200.421875 C 224.671875 201.730469 223.800781 202.601562 222.925781 203.035156 C 222.054688 203.90625 221.183594 204.78125 220.3125 205.652344 C 219.875 206.085938 219.4375 206.523438 219.003906 206.957031 C 218.566406 207.394531 218.566406 207.394531 218.132812 207.828125 C 217.257812 209.136719 215.949219 210.007812 215.078125 211.316406 C 214.207031 212.1875 213.769531 213.058594 212.460938 213.929688 C 211.589844 214.804688 210.71875 216.109375 209.410156 216.546875 C 208.972656 216.980469 208.539062 217.851562 208.101562 218.289062 C 207.664062 218.726562 207.230469 219.597656 206.792969 220.03125 C 206.792969 220.902344 207.230469 221.777344 207.230469 222.210938 C 207.230469 223.519531 205.921875 223.953125 205.050781 223.082031 C 203.742188 222.210938 203.742188 222.210938 202.433594 223.082031 C 201.125 223.953125 199.816406 225.261719 198.074219 225.699219 C 197.636719 225.699219 197.636719 226.132812 197.199219 226.132812 C 196.328125 226.570312 195.890625 227.441406 195.019531 227.875 C 194.148438 228.75 192.839844 229.183594 191.96875 230.054688 C 191.53125 230.492188 191.09375 230.492188 190.660156 230.925781 C 189.351562 231.796875 188.042969 232.234375 186.734375 233.542969 C 186.300781 233.976562 185.863281 233.976562 185.425781 234.414062 C 185.425781 234.847656 185.425781 234.847656 185.425781 235.285156 C 185.425781 236.15625 184.554688 237.027344 183.246094 236.59375 C 181.9375 236.15625 181.066406 236.59375 179.757812 236.59375 C 178.449219 237.027344 177.140625 237.898438 175.832031 238.335938 C 175.398438 238.335938 174.960938 238.769531 174.527344 239.207031 C 173.21875 240.078125 171.910156 240.515625 170.601562 240.949219 C 169.730469 240.949219 168.855469 241.820312 167.984375 241.820312 C 167.546875 241.820312 167.113281 242.257812 166.675781 242.257812 L 166.242188 242.257812 C 164.496094 243.566406 162.753906 244.4375 161.007812 245.742188 C 160.570312 245.742188 160.570312 246.179688 160.136719 246.617188 C 159.699219 247.488281 159.265625 247.921875 158.390625 247.921875 C 156.210938 247.921875 155.339844 249.667969 155.773438 251.410156 C 155.773438 251.84375 156.210938 252.28125 156.210938 252.71875 C 156.648438 253.589844 156.210938 254.460938 155.773438 254.894531 C 155.339844 255.332031 154.03125 255.332031 153.59375 254.460938 C 152.722656 253.589844 152.285156 252.71875 151.851562 251.410156 C 151.414062 250.539062 150.542969 249.667969 149.671875 249.230469 C 148.796875 248.792969 147.925781 248.792969 147.054688 249.230469 C 146.617188 249.230469 146.617188 249.667969 146.183594 249.667969 C 145.308594 250.539062 144 250.972656 142.695312 250.539062 C 142.257812 250.539062 141.386719 250.539062 141.386719 250.972656 C 140.949219 251.410156 140.949219 252.28125 141.386719 252.71875 C 142.257812 253.589844 141.820312 254.460938 141.820312 255.765625 C 141.820312 257.511719 140.511719 258.382812 138.769531 257.511719 C 138.332031 257.074219 137.898438 257.074219 137.460938 256.640625 C 137.023438 256.640625 137.023438 256.203125 137.023438 255.765625 C 136.589844 255.332031 136.589844 254.460938 136.152344 253.589844 C 135.28125 254.023438 134.410156 254.023438 133.535156 254.460938 C 133.101562 254.460938 132.664062 254.894531 132.226562 254.894531 C 130.921875 254.894531 130.484375 254.894531 130.046875 253.589844 C 129.613281 252.28125 128.738281 252.28125 127.867188 251.84375 C 126.125 251.410156 123.945312 251.410156 122.199219 250.539062 L 121.761719 250.539062 C 120.019531 249.230469 118.273438 249.230469 116.09375 249.230469 C 114.785156 249.230469 113.476562 249.667969 112.171875 249.667969 C 110.863281 249.667969 109.988281 250.101562 109.117188 250.972656 C 108.679688 251.410156 108.246094 251.84375 107.808594 251.84375 C 107.375 251.410156 107.375 250.972656 106.9375 250.539062 L 106.9375 250.101562 C 106.9375 249.667969 106.5 249.230469 106.066406 249.667969 C 105.191406 250.101562 104.320312 249.230469 103.449219 248.792969 C 103.011719 248.359375 102.140625 247.488281 102.140625 246.617188 C 101.703125 246.179688 101.269531 245.742188 100.832031 245.742188 C 99.960938 245.742188 98.652344 245.308594 97.78125 245.308594 C 97.34375 245.308594 96.910156 245.308594 96.910156 244.871094 C 96.472656 244.4375 96.035156 244.4375 95.164062 244.4375 C 94.726562 244.4375 94.726562 244 94.292969 244 C 95.164062 244.871094 95.601562 245.742188 96.035156 246.617188 C 96.035156 247.050781 96.472656 247.050781 96.472656 247.488281 C 96.910156 248.359375 96.472656 248.792969 95.164062 248.792969 C 94.292969 248.792969 94.292969 248.792969 93.855469 249.230469 C 93.855469 250.101562 93.855469 250.539062 93.855469 251.410156 C 93.855469 251.84375 93.855469 252.28125 92.984375 252.71875 C 92.984375 252.71875 92.546875 252.71875 92.546875 253.152344 C 92.113281 253.589844 92.113281 254.023438 92.546875 254.460938 C 93.855469 255.332031 94.726562 255.765625 96.035156 256.203125 C 97.34375 256.203125 97.34375 257.074219 97.78125 257.945312 C 98.214844 258.816406 97.78125 259.253906 97.34375 260.125 C 96.472656 260.996094 95.601562 261.867188 94.726562 262.738281 C 93.417969 263.175781 92.546875 264.484375 91.238281 264.484375 C 90.367188 264.484375 89.496094 264.046875 89.058594 263.175781 C 88.625 260.996094 88.625 259.253906 89.496094 257.074219 C 89.496094 256.640625 89.929688 256.203125 89.496094 255.765625 C 85.570312 255.765625 85.570312 254.894531 85.570312 254.460938 C 85.570312 253.589844 86.007812 253.152344 86.007812 252.28125 C 86.441406 251.410156 86.007812 250.972656 84.699219 250.539062 C 84.261719 250.539062 83.828125 250.539062 83.390625 250.539062 C 82.953125 250.539062 82.953125 250.101562 82.082031 250.101562 C 82.953125 249.667969 83.390625 249.667969 84.261719 249.230469 C 83.828125 247.488281 83.390625 246.179688 82.082031 245.308594 C 81.644531 244.871094 81.210938 244.4375 81.210938 243.566406 C 81.210938 242.257812 80.339844 241.386719 79.902344 240.515625 C 79.03125 239.207031 77.285156 238.769531 75.976562 238.769531 C 74.667969 238.335938 73.796875 238.335938 72.488281 237.898438 C 71.179688 237.464844 69.871094 236.15625 68.566406 235.722656 C 68.128906 235.285156 67.691406 234.847656 66.820312 234.414062 C 65.078125 233.542969 63.769531 232.234375 62.460938 230.925781 C 61.589844 230.492188 61.152344 229.621094 60.28125 229.183594 C 59.40625 228.3125 58.972656 227.441406 58.097656 227.003906 C 57.226562 226.132812 56.355469 225.261719 55.046875 224.390625 C 53.738281 223.519531 52.867188 222.210938 51.558594 220.902344 C 50.6875 219.597656 49.378906 218.726562 48.070312 217.851562 C 47.632812 217.851562 47.199219 217.851562 46.761719 217.851562 C 46.324219 217.851562 45.890625 218.289062 45.453125 218.289062 C 44.144531 218.726562 43.273438 219.597656 41.964844 220.03125 C 42.402344 219.597656 42.402344 219.597656 41.964844 218.726562 C 41.53125 218.289062 41.09375 217.851562 40.65625 217.851562 C 39.785156 217.851562 38.914062 217.851562 38.042969 217.851562 C 36.296875 217.851562 34.550781 218.289062 32.808594 218.289062 C 31.5 218.289062 29.757812 218.726562 28.449219 219.160156 C 28.882812 220.03125 28.882812 220.46875 29.320312 221.339844 C 28.449219 221.777344 27.574219 221.777344 26.703125 221.777344 C 26.269531 221.777344 25.394531 222.210938 24.960938 222.648438 C 24.523438 222.648438 24.523438 223.082031 24.085938 222.648438 C 23.214844 222.210938 22.34375 222.648438 21.472656 223.082031 L 21.035156 223.082031 C 21.035156 223.082031 21.035156 222.648438 21.472656 222.648438 C 21.90625 222.210938 22.34375 221.777344 22.777344 221.339844 C 23.214844 220.902344 23.652344 220.902344 24.523438 220.46875 C 24.085938 220.03125 24.085938 219.597656 24.085938 219.597656 C 23.652344 219.160156 23.214844 219.160156 22.777344 219.597656 C 22.34375 220.03125 21.90625 220.46875 21.472656 220.902344 C 21.035156 221.339844 20.597656 221.339844 20.164062 220.902344 C 19.726562 220.46875 19.726562 220.03125 20.164062 219.597656 C 20.164062 219.160156 20.597656 218.726562 21.035156 218.289062 C 21.472656 217.851562 21.472656 217.417969 21.90625 216.980469 C 21.035156 216.109375 20.597656 215.238281 19.726562 214.804688 C 18.417969 213.929688 17.109375 212.625 16.238281 211.316406 C 15.367188 209.574219 14.058594 208.265625 12.3125 207.394531 C 11.878906 206.957031 11.441406 206.523438 11.003906 206.085938 C 10.570312 205.652344 10.570312 205.652344 10.132812 205.214844 C 8.824219 205.652344 7.953125 206.523438 6.644531 206.957031 C 6.210938 206.957031 6.210938 207.394531 5.773438 207.828125 C 5.335938 208.703125 4.464844 208.703125 3.59375 208.703125 C 3.15625 208.703125 2.722656 208.265625 3.15625 207.828125 C 3.59375 206.957031 4.027344 206.085938 5.335938 206.523438 C 5.335938 206.523438 5.773438 206.523438 5.773438 206.085938 C 6.644531 205.214844 7.515625 203.90625 8.824219 203.035156 C 8.390625 201.730469 7.515625 200.855469 7.082031 199.984375 C 6.644531 199.550781 6.644531 199.113281 6.644531 198.242188 C 6.644531 197.808594 6.644531 197.808594 6.210938 197.371094 C 6.210938 197.371094 5.773438 197.371094 5.335938 197.808594 C 4.902344 198.242188 4.027344 198.679688 3.15625 197.808594 C 3.15625 197.371094 3.15625 196.933594 3.59375 196.5 L 4.027344 196.0625 C 5.335938 195.628906 5.335938 194.320312 5.335938 193.011719 L 5.335938 192.578125 C 4.902344 191.707031 4.902344 191.269531 5.773438 190.398438 C 7.082031 189.527344 8.390625 187.785156 8.824219 186.476562 C 9.261719 185.605469 10.132812 185.167969 11.003906 184.296875 C 11.878906 183.425781 12.75 182.554688 13.1875 181.246094 L 13.621094 181.246094 C 15.367188 181.683594 15.800781 180.375 16.675781 179.066406 C 16.675781 178.632812 16.675781 178.195312 17.109375 178.195312 C 17.984375 177.324219 17.984375 176.453125 17.546875 175.144531 C 17.546875 174.710938 17.109375 173.839844 17.109375 173.402344 C 17.109375 172.964844 17.109375 172.964844 16.675781 172.53125 C 15.367188 171.660156 15.367188 170.789062 16.675781 169.914062 C 17.546875 169.480469 17.546875 168.609375 17.984375 168.171875 C 18.417969 167.300781 18.417969 166.429688 18.417969 165.121094 C 17.984375 163.816406 17.984375 162.070312 17.546875 160.765625 C 17.109375 159.019531 16.675781 156.84375 16.238281 155.097656 C 16.238281 154.664062 16.238281 154.664062 16.238281 154.226562 C 16.238281 152.921875 16.238281 152.046875 15.800781 150.742188 C 15.367188 150.304688 15.367188 149.433594 15.367188 148.996094 C 14.929688 147.691406 14.496094 146.820312 13.1875 146.382812 C 11.878906 145.511719 10.132812 145.074219 8.824219 144.203125 C 8.390625 143.769531 7.953125 144.203125 7.515625 144.640625 C 7.082031 145.511719 6.210938 146.382812 5.773438 147.253906 C 5.335938 147.691406 4.902344 148.5625 4.464844 149.433594 C 3.59375 150.304688 1.847656 151.175781 0.539062 149.871094 C 0.105469 148.996094 -0.332031 148.5625 0.539062 147.691406 C 1.414062 146.382812 2.285156 145.074219 3.59375 144.203125 C 4.027344 143.769531 4.464844 142.898438 4.902344 142.460938 C 5.335938 141.589844 5.335938 140.71875 5.335938 139.847656 C 4.902344 138.101562 4.464844 136.359375 4.464844 134.179688 C 4.464844 132 4.464844 130.257812 4.902344 128.078125 C 5.335938 127.207031 5.335938 125.902344 5.773438 125.027344 C 5.773438 124.59375 6.210938 123.722656 6.644531 123.285156 C 7.515625 122.414062 8.390625 121.542969 8.824219 120.234375 C 9.261719 118.929688 10.132812 117.621094 10.132812 116.3125 C 10.132812 115.878906 10.570312 115.441406 10.570312 115.003906 C 10.570312 114.570312 11.003906 113.699219 11.003906 113.261719 C 10.570312 111.957031 11.003906 111.082031 11.441406 110.210938 C 11.878906 109.339844 12.3125 108.03125 12.75 107.160156 C 13.621094 105.417969 13.621094 103.238281 15.367188 101.496094 C 15.800781 100.625 16.238281 99.753906 16.675781 98.882812 C 17.109375 97.136719 17.984375 95.832031 18.855469 94.523438 C 19.289062 94.085938 19.289062 94.085938 19.289062 93.652344 C 19.726562 92.34375 20.597656 91.039062 21.472656 89.730469 C 22.34375 88.421875 22.34375 87.113281 22.777344 85.808594 C 22.777344 85.371094 22.777344 84.9375 23.214844 84.5 C 24.523438 83.191406 24.085938 81.449219 23.652344 79.707031 C 22.777344 77.527344 22.34375 75.347656 22.777344 73.167969 C 22.777344 72.734375 22.777344 72.296875 23.214844 72.296875 C 23.652344 71.425781 23.652344 70.992188 24.085938 70.117188 L 24.085938 69.683594 C 24.960938 68.8125 25.832031 67.503906 27.140625 67.070312 C 28.882812 66.195312 30.628906 65.761719 32.808594 65.324219 C 34.550781 65.324219 36.296875 64.453125 37.605469 62.710938 C 37.605469 62.273438 38.042969 62.273438 38.476562 61.839844 L 38.914062 61.402344 C 39.347656 60.53125 39.785156 60.097656 40.222656 59.660156 C 41.09375 58.789062 41.964844 57.480469 42.835938 56.609375 C 43.710938 55.738281 44.582031 54.429688 45.890625 53.125 L 46.324219 52.6875 C 47.199219 51.816406 48.070312 50.945312 48.941406 50.507812 C 49.816406 49.636719 50.6875 48.765625 51.558594 47.894531 C 52.429688 47.023438 52.867188 46.148438 53.738281 45.277344 C 54.609375 44.84375 55.484375 43.972656 56.355469 43.101562 C 57.226562 42.226562 58.097656 41.355469 58.535156 40.921875 C 59.40625 40.050781 60.714844 39.175781 61.589844 38.742188 C 62.460938 38.304688 63.332031 37.871094 63.769531 36.5625 C 64.203125 35.253906 64.640625 34.382812 65.078125 33.078125 C 65.078125 32.203125 65.511719 31.332031 65.949219 30.460938 C 66.382812 30.460938 66.820312 30.460938 67.691406 30.027344 C 67.257812 29.589844 66.820312 29.589844 66.820312 29.15625 C 66.820312 28.71875 67.257812 28.28125 67.257812 28.28125 C 67.257812 27.847656 67.691406 27.410156 67.691406 26.976562 C 67.691406 26.976562 68.128906 26.976562 68.128906 26.539062 C 68.128906 26.539062 68.566406 26.539062 68.566406 26.105469 C 67.691406 26.539062 67.257812 26.105469 66.820312 25.667969 C 67.257812 26.105469 67.691406 26.105469 68.566406 26.539062 C 68.566406 26.539062 69 26.539062 69 26.105469 C 69 25.667969 69 25.230469 69 25.230469 C 69 25.230469 68.566406 25.230469 68.128906 25.230469 C 67.691406 25.230469 67.257812 25.667969 66.820312 25.667969 Z M 142.257812 230.492188 C 142.257812 230.054688 141.820312 230.054688 141.820312 229.621094 C 141.386719 228.75 141.820312 228.3125 142.257812 227.875 C 142.695312 227.441406 143.128906 227.441406 144 227.441406 C 144.875 227.875 145.308594 228.3125 145.308594 229.183594 C 145.308594 229.621094 145.308594 230.492188 145.308594 230.925781 C 145.746094 232.671875 145.746094 232.671875 147.492188 232.671875 C 148.363281 232.671875 149.234375 232.671875 150.105469 232.671875 C 151.851562 232.234375 153.59375 231.363281 155.339844 230.925781 C 157.082031 230.492188 158.828125 230.054688 160.570312 229.621094 C 161.007812 229.621094 161.445312 229.621094 162.316406 229.621094 C 164.058594 230.054688 165.367188 229.621094 166.675781 228.75 C 167.113281 228.3125 167.984375 228.3125 168.421875 227.875 C 169.292969 227.441406 170.164062 227.441406 171.039062 227.003906 C 173.21875 225.699219 175.398438 224.824219 177.140625 223.519531 C 178.449219 222.648438 179.757812 221.777344 181.066406 220.902344 C 182.375 220.03125 183.683594 219.160156 184.992188 218.289062 C 185.863281 217.851562 187.171875 216.980469 188.042969 216.109375 C 189.789062 214.804688 191.09375 213.496094 192.839844 212.625 C 193.710938 212.1875 194.148438 211.753906 194.585938 211.316406 C 195.457031 210.878906 195.890625 210.007812 196.765625 209.574219 C 197.199219 209.136719 197.636719 208.703125 198.507812 208.265625 C 198.945312 207.828125 198.945312 207.828125 198.945312 207.394531 C 200.253906 206.523438 201.5625 204.78125 202.433594 203.472656 C 203.304688 202.601562 204.175781 201.730469 205.050781 200.421875 C 206.359375 199.113281 207.230469 197.371094 208.539062 195.628906 C 209.410156 194.757812 210.28125 193.449219 210.71875 192.578125 C 211.589844 190.835938 212.460938 189.089844 213.769531 187.785156 L 213.769531 187.347656 C 214.640625 185.605469 215.515625 183.863281 216.386719 182.117188 C 217.695312 179.9375 218.566406 177.324219 219.875 175.144531 C 220.3125 174.273438 220.746094 173.402344 220.746094 172.53125 C 221.621094 170.789062 222.054688 169.042969 222.492188 167.300781 C 222.492188 166.867188 222.492188 166.867188 222.925781 166.429688 C 224.234375 163.816406 225.109375 161.199219 225.542969 158.148438 C 225.980469 156.40625 226.414062 154.664062 226.851562 152.921875 C 227.722656 150.304688 227.722656 148.125 228.160156 145.511719 C 228.597656 143.769531 228.597656 141.589844 228.597656 139.847656 C 229.03125 137.230469 229.03125 134.179688 228.597656 131.566406 C 228.597656 129.386719 228.160156 126.773438 228.160156 124.59375 C 228.160156 122.414062 227.722656 120.671875 227.289062 118.492188 C 226.851562 116.3125 226.414062 114.570312 225.980469 112.390625 C 225.109375 110.648438 224.671875 108.90625 224.234375 106.726562 C 223.800781 104.984375 222.925781 103.675781 222.925781 101.933594 C 222.925781 100.625 222.492188 99.316406 221.183594 98.882812 C 219.875 98.445312 219.003906 98.011719 217.695312 97.136719 C 215.078125 95.394531 213.769531 93.214844 214.207031 90.601562 C 214.207031 89.292969 214.640625 87.550781 215.078125 86.242188 C 215.515625 84.9375 215.949219 83.628906 215.078125 82.757812 C 214.640625 81.449219 213.769531 80.578125 213.335938 79.707031 C 212.460938 78.398438 212.027344 77.527344 211.152344 76.65625 C 210.28125 74.914062 209.410156 73.167969 208.101562 71.863281 C 206.359375 69.683594 205.050781 67.503906 202.867188 65.761719 L 202.433594 65.324219 C 201.125 63.582031 199.816406 61.839844 198.074219 60.53125 C 197.199219 59.660156 196.328125 58.789062 195.457031 58.351562 C 195.019531 57.917969 194.585938 57.480469 193.710938 57.046875 C 192.402344 56.171875 191.09375 55.738281 190.222656 54.867188 C 188.914062 53.558594 187.171875 52.6875 185.863281 51.816406 C 185.863281 51.816406 185.425781 51.816406 185.425781 51.378906 C 183.683594 50.507812 182.375 50.074219 180.628906 49.199219 C 178.886719 48.328125 177.140625 47.894531 175.398438 47.894531 C 174.960938 47.894531 174.960938 47.894531 174.527344 47.894531 C 174.089844 47.457031 173.21875 47.457031 172.78125 47.457031 C 172.34375 47.457031 172.34375 47.457031 171.910156 47.457031 C 171.039062 47.023438 169.730469 47.457031 168.855469 47.457031 C 167.113281 47.894531 165.367188 47.894531 163.625 47.023438 C 161.445312 46.148438 159.699219 45.277344 157.957031 44.40625 C 156.648438 43.535156 155.773438 42.664062 154.46875 41.792969 C 151.851562 39.613281 149.234375 37 146.183594 34.820312 C 146.617188 32.640625 145.746094 32.203125 144 32.203125 C 143.128906 32.203125 142.257812 32.640625 141.386719 33.078125 C 140.949219 33.511719 140.949219 33.511719 140.511719 33.949219 C 139.207031 34.820312 138.332031 36.128906 137.023438 37 C 134.84375 38.304688 133.972656 37.871094 132.226562 37 C 131.792969 36.5625 131.355469 36.128906 130.921875 35.691406 C 130.046875 34.820312 129.175781 33.511719 128.738281 32.640625 C 127.867188 30.898438 126.125 30.898438 124.378906 30.898438 C 123.507812 30.898438 122.199219 31.332031 121.328125 31.332031 C 119.582031 31.332031 117.839844 32.203125 116.964844 33.511719 C 116.09375 34.820312 115.222656 36.128906 113.914062 37.433594 C 113.476562 37.871094 112.605469 38.304688 112.171875 39.175781 C 111.296875 40.050781 110.425781 40.050781 109.554688 39.175781 C 109.117188 38.742188 108.679688 38.742188 108.246094 38.304688 C 107.808594 38.742188 107.375 39.175781 107.375 39.613281 C 106.9375 40.484375 106.5 41.355469 106.066406 42.664062 C 105.628906 43.972656 104.757812 45.277344 103.886719 46.148438 C 103.449219 46.585938 103.449219 46.585938 103.011719 47.023438 C 102.578125 47.894531 101.269531 48.328125 100.398438 48.328125 C 99.523438 49.199219 98.652344 50.507812 98.214844 51.378906 C 97.78125 52.25 97.34375 53.125 96.910156 54.429688 C 96.472656 54.867188 96.472656 55.738281 96.035156 56.171875 C 95.601562 57.046875 95.601562 57.480469 95.601562 58.351562 C 96.035156 59.660156 95.164062 60.097656 93.855469 60.53125 C 92.984375 60.53125 92.984375 60.53125 92.546875 61.402344 C 92.546875 62.710938 92.984375 63.582031 93.417969 64.890625 C 93.855469 65.324219 94.292969 66.195312 94.292969 66.632812 C 94.292969 67.503906 94.726562 67.941406 95.601562 68.375 C 96.035156 68.8125 96.472656 69.246094 96.910156 69.246094 C 97.34375 69.246094 97.34375 69.683594 97.78125 69.683594 C 98.214844 70.117188 98.652344 69.683594 98.652344 69.246094 C 99.089844 67.941406 99.523438 66.632812 99.523438 65.324219 C 99.960938 63.582031 99.960938 62.273438 100.398438 60.53125 C 100.832031 59.660156 101.269531 59.222656 101.703125 58.789062 C 101.703125 58.789062 102.140625 58.789062 102.578125 58.789062 L 102.578125 59.222656 C 102.140625 61.402344 101.269531 64.019531 100.832031 66.195312 C 100.398438 67.070312 100.398438 67.941406 99.960938 68.8125 C 99.960938 69.246094 99.523438 69.683594 99.089844 69.683594 C 98.214844 70.117188 97.34375 70.554688 96.472656 70.554688 C 96.035156 70.554688 95.601562 70.554688 95.164062 70.554688 C 94.292969 70.117188 93.417969 69.246094 92.546875 68.8125 C 92.113281 68.375 91.675781 67.941406 91.238281 67.503906 C 90.804688 66.632812 90.367188 65.761719 89.929688 64.890625 C 89.496094 64.019531 89.058594 63.582031 88.1875 63.144531 C 87.75 62.710938 87.316406 62.710938 86.878906 62.273438 C 86.007812 61.402344 85.136719 60.96875 83.828125 60.96875 C 83.390625 60.96875 82.519531 60.96875 82.082031 60.96875 C 81.644531 60.96875 80.773438 61.402344 80.339844 61.839844 C 79.464844 62.273438 79.03125 62.273438 78.15625 61.839844 C 75.976562 60.96875 73.796875 61.402344 71.617188 62.273438 C 70.746094 62.710938 69.871094 63.144531 69 63.144531 C 66.820312 63.144531 65.078125 63.144531 62.894531 63.144531 C 60.714844 63.144531 58.972656 62.710938 56.792969 62.273438 C 55.917969 62.273438 55.046875 62.273438 54.175781 62.273438 C 52.429688 62.710938 51.996094 64.019531 52.429688 65.761719 C 52.867188 67.503906 53.304688 69.683594 53.304688 71.425781 C 53.304688 72.734375 53.304688 74.042969 53.304688 75.347656 C 53.304688 76.21875 53.304688 76.65625 53.304688 77.527344 C 53.304688 78.835938 52.867188 80.140625 52.867188 81.449219 C 52.429688 84.0625 51.121094 86.242188 49.378906 87.988281 C 48.070312 89.292969 46.324219 90.601562 44.582031 91.039062 C 43.710938 91.472656 42.835938 91.910156 41.53125 92.34375 C 39.347656 93.214844 37.605469 94.960938 36.296875 97.136719 C 35.859375 98.011719 35.425781 98.882812 34.988281 99.753906 C 34.117188 101.058594 33.679688 101.933594 32.808594 103.238281 C 32.371094 104.109375 31.5 104.984375 31.0625 105.855469 C 30.628906 106.726562 29.757812 107.160156 29.757812 108.03125 C 28.882812 109.777344 28.449219 111.519531 27.574219 113.261719 C 27.140625 114.132812 27.140625 115.441406 26.703125 116.3125 C 25.832031 118.054688 25.832031 119.800781 25.832031 121.980469 C 25.832031 122.414062 25.832031 122.851562 25.832031 123.722656 C 25.832031 125.902344 25.394531 128.515625 25.394531 130.695312 C 25.394531 132.875 25.394531 135.050781 25.832031 137.230469 C 25.832031 138.101562 25.832031 139.410156 25.832031 140.28125 C 25.832031 142.023438 26.269531 144.203125 26.269531 145.945312 C 26.269531 147.691406 26.269531 149.871094 27.140625 151.613281 L 27.140625 152.046875 C 27.574219 153.792969 27.574219 155.535156 28.011719 157.277344 C 28.011719 157.714844 28.011719 158.148438 28.449219 158.585938 C 29.320312 161.199219 29.757812 163.378906 30.628906 165.992188 C 31.0625 167.738281 31.9375 169.480469 32.371094 171.222656 C 32.808594 172.964844 34.550781 174.710938 34.988281 176.886719 C 36.296875 179.503906 37.605469 182.117188 39.347656 184.734375 C 39.785156 185.605469 40.65625 186.476562 41.09375 187.347656 C 41.964844 188.65625 42.402344 189.960938 43.273438 190.835938 C 43.710938 191.707031 44.582031 192.578125 45.019531 193.011719 C 45.453125 193.882812 45.890625 194.757812 46.761719 195.628906 C 47.632812 196.5 48.507812 197.808594 49.378906 198.679688 C 50.6875 200.855469 52.429688 202.601562 54.175781 203.90625 C 55.046875 204.78125 55.917969 205.214844 56.792969 206.085938 C 57.226562 206.523438 57.664062 206.523438 57.664062 206.957031 C 58.097656 207.394531 58.535156 207.828125 59.40625 208.265625 C 62.894531 210.007812 65.511719 212.625 68.566406 215.238281 C 69.871094 216.546875 71.179688 217.851562 72.925781 218.726562 C 74.667969 220.03125 75.976562 221.339844 78.15625 221.777344 C 78.15625 221.777344 78.59375 221.777344 78.59375 222.210938 C 79.464844 223.082031 80.773438 223.519531 81.644531 223.953125 C 83.390625 224.824219 85.570312 225.699219 87.316406 226.570312 C 87.75 227.003906 88.625 227.003906 89.058594 227.441406 C 90.367188 227.875 91.675781 228.3125 92.984375 228.75 C 94.292969 229.183594 95.164062 229.621094 96.472656 229.621094 L 96.910156 229.621094 C 97.78125 230.054688 98.214844 230.054688 99.089844 229.621094 C 99.523438 229.621094 99.960938 229.621094 99.960938 230.054688 C 99.960938 230.492188 100.398438 230.492188 100.832031 230.492188 C 101.269531 230.492188 101.703125 230.492188 102.578125 230.492188 C 103.011719 230.054688 103.011719 229.621094 103.449219 228.75 C 103.886719 229.183594 104.320312 229.183594 104.320312 229.183594 C 104.757812 230.054688 105.628906 230.054688 106.5 230.054688 L 106.9375 230.054688 C 107.808594 230.054688 108.246094 230.054688 108.679688 229.621094 C 108.679688 229.183594 109.554688 229.183594 109.988281 229.183594 C 111.296875 229.621094 112.605469 229.621094 113.914062 230.054688 C 114.785156 230.492188 116.09375 230.492188 116.53125 229.621094 C 116.964844 229.183594 117.402344 228.75 118.273438 229.183594 C 119.148438 229.621094 119.582031 229.621094 120.453125 229.183594 C 120.890625 229.183594 121.328125 229.183594 121.328125 229.183594 C 122.636719 229.621094 123.507812 229.621094 124.816406 230.054688 C 126.558594 230.492188 126.558594 230.492188 127.867188 229.183594 C 128.304688 228.75 129.175781 228.75 129.613281 229.183594 C 130.046875 230.054688 130.046875 230.492188 130.046875 231.363281 C 130.484375 231.363281 130.484375 231.363281 130.921875 230.925781 C 130.921875 230.054688 131.355469 230.054688 132.226562 229.621094 C 132.664062 230.054688 132.664062 230.054688 133.101562 230.054688 C 133.972656 230.925781 134.410156 230.925781 134.84375 229.621094 C 134.84375 229.183594 134.84375 228.75 135.28125 228.75 C 135.71875 228.75 136.152344 229.183594 136.152344 229.183594 C 136.589844 230.054688 137.460938 230.492188 137.898438 231.363281 C 138.769531 232.234375 140.078125 232.234375 140.511719 231.363281 C 140.949219 230.925781 141.386719 230.925781 141.820312 230.925781 C 141.820312 230.492188 141.820312 230.054688 141.820312 229.621094 C 143.128906 230.492188 142.695312 230.492188 142.257812 230.492188 Z M 69.871094 26.976562 C 71.179688 27.410156 72.054688 27.410156 72.488281 26.539062 C 71.617188 26.976562 70.746094 26.105469 69.871094 26.976562 Z M 69.871094 26.976562 "/>
</g>
<g clip-path="url(#clip2)" clip-rule="nonzero">
<path style=" stroke:none;fill-rule:nonzero;fill:rgb(21.176471%,92.156863%,73.72549%);fill-opacity:1;" d="M 71.132812 141.210938 L 71.132812 131.917969 L 74.519531 131.917969 L 74.519531 141.457031 C 74.519531 142.371094 74.570312 143.0625 74.675781 143.527344 C 74.78125 143.992188 75.023438 144.503906 75.402344 145.050781 C 75.777344 145.597656 76.046875 145.871094 76.210938 145.871094 C 76.375 145.871094 76.644531 145.597656 77.019531 145.050781 C 77.398438 144.503906 77.640625 143.992188 77.746094 143.527344 C 77.851562 143.0625 77.902344 142.371094 77.902344 141.457031 L 77.902344 138.585938 C 77.902344 137.214844 77.8125 136.257812 77.625 135.71875 C 77.433594 135.179688 77.039062 134.515625 76.433594 133.730469 L 79.375 131.621094 C 79.898438 131.964844 80.351562 132.632812 80.726562 133.617188 C 81.101562 134.609375 81.289062 135.792969 81.289062 137.164062 L 81.289062 141.210938 C 81.289062 142.488281 81.167969 143.53125 80.921875 144.351562 C 80.675781 145.167969 79.980469 146.210938 78.828125 147.476562 C 77.671875 148.742188 76.800781 149.378906 76.210938 149.378906 C 75.621094 149.378906 74.75 148.742188 73.601562 147.476562 C 72.445312 146.210938 71.746094 145.167969 71.5 144.351562 C 71.253906 143.53125 71.132812 142.488281 71.132812 141.210938 Z M 85.804688 133.214844 C 86.96875 132.152344 87.851562 131.621094 88.457031 131.621094 C 89.0625 131.621094 89.945312 132.152344 91.105469 133.214844 C 92.269531 134.277344 92.988281 135.152344 93.265625 135.839844 C 93.445312 136.316406 93.535156 137.386719 93.535156 139.054688 L 93.535156 149.082031 L 90.148438 149.082031 L 90.148438 145.40625 L 86.761719 145.40625 L 86.761719 149.082031 L 83.375 149.082031 L 83.375 139.054688 C 83.375 137.386719 83.464844 136.316406 83.644531 135.839844 C 83.925781 135.152344 84.644531 134.277344 85.804688 133.214844 Z M 86.761719 139.054688 L 86.761719 142.460938 L 90.148438 142.460938 L 90.148438 139.054688 C 90.148438 137.710938 90.082031 136.890625 89.953125 136.585938 C 89.820312 136.285156 89.597656 135.964844 89.277344 135.628906 C 88.957031 135.296875 88.683594 135.128906 88.457031 135.128906 C 88.226562 135.128906 87.953125 135.296875 87.632812 135.628906 C 87.3125 135.964844 87.089844 136.285156 86.960938 136.585938 C 86.828125 136.890625 86.761719 137.710938 86.761719 139.054688 Z M 94.6875 131.917969 L 104.457031 131.917969 L 104.457031 134.859375 L 101.265625 134.859375 L 101.265625 149.082031 L 97.878906 149.082031 L 97.878906 134.859375 L 94.6875 134.859375 Z M 115.246094 142.167969 C 115.425781 142.460938 115.515625 143.046875 115.515625 143.917969 C 115.515625 144.796875 115.335938 145.535156 114.976562 146.140625 C 114.652344 146.613281 113.957031 147.273438 112.890625 148.113281 C 111.828125 148.957031 111.042969 149.378906 110.535156 149.378906 C 109.636719 149.378906 108.605469 148.910156 107.445312 147.96875 C 106.28125 147.027344 105.546875 145.992188 105.234375 144.867188 L 107.960938 143 C 108.222656 143.769531 108.636719 144.472656 109.210938 145.109375 C 109.785156 145.75 110.1875 146.066406 110.429688 146.066406 C 110.664062 146.066406 110.917969 145.988281 111.1875 145.832031 C 111.457031 145.679688 111.664062 145.519531 111.8125 145.355469 C 112.023438 145.09375 112.132812 144.683594 112.132812 144.128906 C 112.132812 143.574219 112 143.230469 111.738281 143.097656 C 111.410156 142.820312 110.777344 142.453125 109.839844 141.996094 C 108.898438 141.539062 108.023438 141.042969 107.222656 140.511719 C 106.421875 139.980469 105.910156 139.460938 105.691406 138.953125 C 105.46875 138.449219 105.359375 137.789062 105.359375 136.976562 C 105.359375 136.171875 105.539062 135.464844 105.898438 134.859375 C 106.226562 134.386719 106.921875 133.726562 107.984375 132.886719 C 109.046875 132.042969 109.832031 131.621094 110.339844 131.621094 C 111.238281 131.621094 112.269531 132.089844 113.433594 133.03125 C 114.59375 133.972656 115.328125 135.007812 115.640625 136.132812 L 112.917969 138.023438 C 112.65625 137.253906 112.238281 136.546875 111.664062 135.898438 C 111.09375 135.253906 110.6875 134.933594 110.453125 134.933594 C 110.214844 134.933594 109.957031 135.007812 109.675781 135.152344 C 109.398438 135.300781 109.175781 135.484375 109.003906 135.703125 C 108.832031 135.925781 108.746094 136.300781 108.746094 136.832031 C 108.746094 137.363281 108.910156 137.71875 109.234375 137.902344 C 109.496094 138.128906 110.09375 138.488281 111.027344 138.980469 C 113.414062 140.289062 114.820312 141.351562 115.246094 142.167969 Z M 119.789062 133.214844 C 120.949219 132.152344 121.832031 131.621094 122.4375 131.621094 C 123.042969 131.621094 123.925781 132.152344 125.085938 133.214844 C 126.25 134.277344 126.96875 135.152344 127.246094 135.839844 C 127.425781 136.316406 127.515625 137.386719 127.515625 139.054688 L 127.515625 149.082031 L 124.128906 149.082031 L 124.128906 145.40625 L 120.746094 145.40625 L 120.746094 149.082031 L 117.359375 149.082031 L 117.359375 139.054688 C 117.359375 137.386719 117.449219 136.316406 117.628906 135.839844 C 117.90625 135.152344 118.625 134.277344 119.789062 133.214844 Z M 120.746094 139.054688 L 120.746094 142.460938 L 124.128906 142.460938 L 124.128906 139.054688 C 124.128906 137.710938 124.066406 136.890625 123.933594 136.585938 C 123.804688 136.285156 123.578125 135.964844 123.261719 135.628906 C 122.941406 135.296875 122.667969 135.128906 122.4375 135.128906 C 122.207031 135.128906 121.933594 135.296875 121.617188 135.628906 C 121.296875 135.964844 121.070312 136.285156 120.941406 136.585938 C 120.808594 136.890625 120.746094 137.710938 120.746094 139.054688 Z M 132.5 146.140625 L 138.070312 146.140625 L 138.070312 149.082031 L 129.113281 149.082031 L 129.113281 131.917969 L 132.5 131.917969 Z M 150.652344 143.933594 L 150.652344 140.769531 L 151.144531 140.769531 C 151.453125 140.769531 151.820312 140.617188 152.238281 140.3125 C 152.652344 140.011719 152.917969 139.683594 153.03125 139.324219 C 153.148438 138.964844 153.203125 138.480469 153.203125 137.875 C 153.203125 137.269531 153.148438 136.765625 153.03125 136.363281 C 152.917969 135.964844 152.652344 135.621094 152.238281 135.324219 C 151.820312 135.03125 151.417969 134.882812 151.035156 134.882812 C 150.648438 134.882812 150.128906 135.097656 149.472656 135.523438 C 149.523438 136.0625 149.546875 136.609375 149.546875 137.164062 L 149.546875 149.082031 L 146.160156 149.082031 L 146.160156 138.585938 C 146.160156 137.214844 146.070312 136.246094 145.882812 135.679688 C 145.691406 135.117188 145.292969 134.457031 144.6875 133.707031 L 147.632812 131.621094 C 148.058594 131.917969 148.4375 132.398438 148.761719 133.070312 C 150.105469 132.105469 151.0625 131.621094 151.632812 131.621094 C 152.207031 131.621094 153 132.078125 154.015625 132.996094 C 155.027344 133.910156 155.714844 134.679688 156.074219 135.300781 C 156.253906 135.53125 156.34375 136.324219 156.34375 137.679688 C 156.34375 139.035156 156.253906 139.894531 156.074219 140.253906 C 155.714844 140.875 155.027344 141.644531 154.015625 142.558594 C 153 143.476562 152.207031 143.933594 151.632812 143.933594 Z M 160.613281 133.214844 C 161.777344 132.152344 162.660156 131.621094 163.265625 131.621094 C 163.871094 131.621094 164.753906 132.152344 165.914062 133.214844 C 167.078125 134.277344 167.796875 135.152344 168.074219 135.839844 C 168.253906 136.316406 168.34375 137.386719 168.34375 139.054688 L 168.34375 149.082031 L 164.957031 149.082031 L 164.957031 145.40625 L 161.570312 145.40625 L 161.570312 149.082031 L 158.1875 149.082031 L 158.1875 139.054688 C 158.1875 137.386719 158.277344 136.316406 158.457031 135.839844 C 158.734375 135.152344 159.453125 134.277344 160.613281 133.214844 Z M 161.570312 139.054688 L 161.570312 142.460938 L 164.957031 142.460938 L 164.957031 139.054688 C 164.957031 137.710938 164.894531 136.890625 164.761719 136.585938 C 164.632812 136.285156 164.40625 135.964844 164.089844 135.628906 C 163.769531 135.296875 163.496094 135.128906 163.265625 135.128906 C 163.035156 135.128906 162.761719 135.296875 162.445312 135.628906 C 162.125 135.964844 161.898438 136.285156 161.769531 136.585938 C 161.636719 136.890625 161.570312 137.710938 161.570312 139.054688 Z M 169.5 131.917969 L 179.265625 131.917969 L 179.265625 134.859375 L 176.074219 134.859375 L 176.074219 149.082031 L 172.6875 149.082031 L 172.6875 134.859375 L 169.5 134.859375 Z M 184.171875 135.25 L 184.171875 138.636719 L 188.566406 138.636719 L 188.566406 141.605469 L 184.171875 141.605469 L 184.171875 146.117188 L 190.039062 146.117188 L 190.039062 149.082031 L 180.785156 149.082031 L 180.785156 133.976562 L 184.171875 131.621094 L 189.644531 131.621094 L 189.644531 134.613281 L 185.082031 134.613281 Z M 194.398438 146.140625 L 199.96875 146.140625 L 199.96875 149.082031 L 191.015625 149.082031 L 191.015625 131.917969 L 194.398438 131.917969 Z M 194.398438 146.140625 "/>
</g>
<g clip-path="url(#clip3)" clip-rule="nonzero">
<path style=" stroke:none;fill-rule:nonzero;fill:rgb(94.901961%,17.254902%,53.72549%);fill-opacity:1;" d="M 65.605469 135.546875 C 65.570312 135.445312 65.53125 135.34375 65.488281 135.242188 C 65.417969 134.839844 65.105469 134.085938 65.101562 134.078125 L 65.035156 133.933594 C 64.890625 133.621094 64.730469 133.265625 64.699219 132.960938 C 64.675781 132.726562 64.980469 131.507812 65.128906 130.921875 C 65.398438 129.84375 65.425781 129.730469 65.097656 129.613281 C 65.046875 129.59375 64.996094 129.589844 64.945312 129.59375 L 64.941406 129.59375 C 64.628906 129.523438 64.292969 129.742188 63.730469 130.132812 C 63.628906 130.203125 63.5 130.292969 63.378906 130.371094 C 63.421875 130.171875 63.414062 129.914062 63.160156 129.710938 C 62.835938 129.449219 62.378906 129.714844 61.6875 130.113281 C 61.492188 130.226562 61.203125 130.394531 61.007812 130.480469 C 60.855469 130.230469 60.574219 129.957031 60.042969 130.0625 C 59.742188 130.125 59.390625 130.390625 58.890625 130.785156 C 58.75 130.902344 58.601562 131.015625 58.453125 131.125 C 58.449219 131.03125 58.441406 130.933594 58.402344 130.835938 C 58.226562 130.375 57.941406 130.226562 57.730469 130.1875 C 57.054688 130.050781 56.324219 130.820312 55.742188 131.441406 C 55.707031 131.480469 55.667969 131.519531 55.628906 131.558594 C 55.460938 131.28125 55.25 130.992188 54.9375 130.9375 C 54.636719 130.882812 53.398438 131.179688 52.25 132.1875 C 51.15625 133.148438 49.882812 135 50.035156 138.378906 C 50.074219 139.308594 50.578125 147.554688 55.460938 150.457031 C 56.542969 151.097656 57.742188 151.417969 59.054688 151.417969 C 60.628906 151.417969 62.367188 150.960938 64.253906 150.042969 C 69.320312 147.574219 65.648438 135.667969 65.605469 135.546875 M 63.9375 149.394531 C 60.707031 150.96875 57.980469 151.117188 55.828125 149.839844 C 51.273438 147.128906 50.792969 139.238281 50.753906 138.347656 C 50.652344 136.082031 51.203125 134.300781 52.386719 133.054688 C 53.402344 131.984375 54.554688 131.683594 54.808594 131.652344 C 54.894531 131.722656 55.03125 131.957031 55.101562 132.078125 C 55.160156 132.179688 55.210938 132.269531 55.265625 132.34375 C 55.382812 132.496094 55.597656 132.53125 55.757812 132.421875 C 55.890625 132.332031 56.046875 132.164062 56.265625 131.933594 C 56.550781 131.632812 57.300781 130.835938 57.589844 130.890625 C 57.632812 130.898438 57.6875 130.976562 57.726562 131.085938 C 57.734375 131.109375 57.734375 131.183594 57.730469 131.230469 C 57.726562 131.410156 57.722656 131.746094 58.019531 131.917969 C 58.363281 132.125 58.753906 131.816406 59.339844 131.347656 C 59.597656 131.144531 60.03125 130.800781 60.183594 130.769531 C 60.316406 130.742188 60.355469 130.734375 60.476562 131.027344 C 60.519531 131.136719 60.613281 131.214844 60.730469 131.242188 C 61.03125 131.3125 61.40625 131.105469 62.046875 130.738281 C 62.203125 130.648438 62.425781 130.519531 62.601562 130.429688 C 62.546875 130.597656 62.492188 130.828125 62.632812 131.054688 C 62.703125 131.164062 62.8125 131.238281 62.941406 131.265625 C 63.25 131.328125 63.582031 131.113281 64.136719 130.726562 C 64.253906 130.644531 64.375 130.5625 64.496094 130.484375 C 64.472656 130.570312 64.453125 130.660156 64.429688 130.75 C 64.148438 131.875 63.949219 132.699219 63.984375 133.03125 C 64 133.203125 64.042969 133.375 64.097656 133.542969 C 63.730469 133.324219 63.3125 133.210938 62.851562 133.277344 C 62.59375 133.3125 62.34375 133.421875 62.109375 133.59375 C 61.773438 133.296875 61.390625 133.085938 60.980469 133.050781 C 59.972656 132.960938 58.664062 132.960938 57.699219 133.375 C 57.265625 133.03125 56.617188 132.984375 55.898438 133.25 C 54.617188 133.730469 53.757812 134.554688 53.351562 135.707031 C 52.324219 138.617188 54.496094 142.800781 55.492188 144.480469 C 55.453125 144.796875 55.464844 145.109375 55.527344 145.417969 C 55.699219 146.246094 56.433594 147.648438 59.410156 147.746094 C 63.078125 147.867188 64.289062 146.28125 64.425781 145.328125 C 64.5 144.808594 64.257812 144.507812 63.984375 144.4375 C 63.746094 144.375 63 144.363281 61.230469 144.355469 C 59.628906 144.347656 57.050781 144.332031 56.269531 144.1875 C 56.492188 143.320312 57.097656 142.542969 57.621094 142.292969 C 58.007812 142.109375 58.195312 142.265625 58.304688 142.398438 C 58.445312 142.570312 58.605469 142.601562 58.710938 142.601562 C 58.949219 142.597656 59.09375 142.425781 59.183594 142.308594 C 59.273438 142.347656 59.382812 142.433594 59.5 142.519531 C 59.785156 142.738281 60.171875 143.03125 60.738281 143.039062 C 61.042969 143.035156 61.296875 142.957031 61.476562 142.777344 C 61.769531 142.492188 61.792969 142.058594 61.792969 141.601562 C 61.792969 141.121094 61.707031 140.683594 61.625 140.257812 L 61.582031 140.027344 C 61.414062 139.125 61.179688 138.15625 60.878906 137.148438 C 60.816406 136.941406 60.75 136.730469 60.679688 136.523438 C 60.585938 136.226562 60.484375 135.917969 60.40625 135.628906 C 60.355469 135.445312 60.242188 134.960938 60.160156 134.609375 C 60.121094 134.425781 60.085938 134.28125 60.074219 134.226562 C 60.023438 134.035156 59.828125 133.917969 59.636719 133.964844 C 59.441406 134.015625 59.324219 134.210938 59.375 134.402344 C 59.386719 134.457031 59.421875 134.597656 59.460938 134.773438 C 59.542969 135.128906 59.660156 135.621094 59.710938 135.820312 C 59.796875 136.125 59.898438 136.4375 59.996094 136.742188 C 60.0625 136.949219 60.128906 137.15625 60.1875 137.355469 C 60.480469 138.335938 60.714844 139.28125 60.875 140.160156 L 60.921875 140.394531 C 61 140.804688 61.074219 141.191406 61.074219 141.601562 C 61.074219 141.796875 61.074219 142.164062 60.972656 142.265625 C 60.925781 142.3125 60.820312 142.320312 60.746094 142.320312 C 60.417969 142.316406 60.183594 142.136719 59.9375 141.949219 C 59.6875 141.757812 59.40625 141.539062 59.035156 141.570312 C 58.878906 141.582031 58.769531 141.675781 58.691406 141.765625 C 58.320312 141.445312 57.828125 141.398438 57.3125 141.644531 C 56.6875 141.941406 56.085938 142.648438 55.75 143.484375 C 54.734375 141.636719 53.210938 138.273438 54.03125 135.949219 C 54.367188 134.992188 55.0625 134.332031 56.152344 133.925781 C 56.289062 133.871094 56.679688 133.746094 57.007812 133.824219 C 56.472656 134.359375 55.714844 135.675781 55.8125 136.554688 C 55.859375 136.941406 56.066406 137.234375 56.398438 137.378906 C 56.996094 137.640625 57.902344 137.488281 58.25 136.855469 C 58.445312 136.496094 58.507812 135.921875 58.433594 135.152344 C 58.417969 135.011719 58.355469 134.457031 58.136719 133.976562 C 58.796875 133.738281 59.753906 133.664062 60.914062 133.769531 C 61.132812 133.785156 61.371094 133.90625 61.609375 134.113281 C 61.585938 134.144531 61.566406 134.175781 61.542969 134.207031 C 61.097656 134.878906 60.910156 135.753906 61.078125 136.382812 C 61.148438 136.648438 61.332031 136.855469 61.609375 136.980469 C 62.109375 137.210938 62.832031 137.136719 63.242188 136.9375 C 63.425781 136.847656 63.621094 136.617188 63.515625 136.046875 C 63.417969 135.527344 63.089844 134.757812 62.601562 134.128906 C 62.71875 134.054688 62.835938 134.003906 62.953125 133.988281 C 63.75 133.871094 64.464844 134.726562 64.8125 135.496094 C 64.8125 135.5 64.8125 135.5 64.816406 135.503906 C 64.855469 135.597656 64.894531 135.691406 64.921875 135.78125 C 65.554688 137.632812 67.914062 147.457031 63.9375 149.394531 M 62.128906 134.699219 C 62.621094 135.394531 62.820312 136.082031 62.828125 136.328125 C 62.566406 136.417969 62.152344 136.4375 61.910156 136.328125 C 61.792969 136.273438 61.78125 136.21875 61.777344 136.199219 C 61.667969 135.789062 61.804688 135.152344 62.105469 134.667969 Z M 57.617188 136.511719 C 57.472656 136.773438 56.976562 136.847656 56.6875 136.71875 C 56.617188 136.691406 56.550781 136.636719 56.53125 136.472656 C 56.460938 135.871094 57.109375 134.730469 57.511719 134.335938 C 57.617188 134.597656 57.691406 134.929688 57.71875 135.21875 C 57.773438 135.808594 57.734375 136.292969 57.617188 136.511719 M 56.1875 144.894531 C 56.871094 145.015625 58.265625 145.058594 61.226562 145.074219 C 62.238281 145.078125 63.367188 145.085938 63.71875 145.121094 C 63.722656 145.222656 63.6875 145.4375 63.511719 145.703125 C 63.222656 146.132812 62.246094 147.117188 59.4375 147.027344 C 57.566406 146.964844 56.460938 146.359375 56.230469 145.269531 C 56.207031 145.144531 56.191406 145.019531 56.1875 144.894531 "/>
</g>
</g>
</svg>
